<svg width="110" height="150" viewBox="0 0 110 150" fill="none" xmlns="http://www.w3.org/2000/svg">
<path d="M62.7657 8.02779C62.7657 12.4614 59.1818 16.0556 54.7608 16.0556C50.3398 16.0556 46.7559 12.4614 46.7559 8.02779C46.7559 3.59416 50.3398 0 54.7608 0C59.1818 0 62.7657 3.59416 62.7657 8.02779Z" fill="url(#paint0_linear_177_22)" fill-opacity="0.59"/>
<path d="M78.0478 50.9035C78.0478 63.7005 67.7033 74.0746 54.9427 74.0746C42.1822 74.0746 31.8377 63.7005 31.8377 50.9035C31.8377 38.1064 42.1822 27.7324 54.9427 27.7324C67.7033 27.7324 78.0478 38.1064 78.0478 50.9035ZM45.084 50.9035C45.084 56.3639 49.4979 60.7904 54.9427 60.7904C60.3876 60.7904 64.8015 56.3639 64.8015 50.9035C64.8015 45.4431 60.3876 41.0166 54.9427 41.0166C49.4979 41.0166 45.084 45.4431 45.084 50.9035Z" fill="url(#paint1_linear_177_22)" fill-opacity="0.59"/>
<path d="M101.568 48.1667C105.257 48.1667 108.293 51.1791 107.808 54.847C107.205 59.4037 105.987 63.8726 104.177 68.1354C101.489 74.4662 97.5488 80.2186 92.582 85.064C87.6153 89.9094 81.7189 93.753 75.2295 96.3753C68.7401 98.9977 61.7849 100.347 54.7608 100.347C47.7368 100.347 40.7815 98.9977 34.2921 96.3753C27.8027 93.753 21.9063 89.9094 16.9396 85.064C11.9728 80.2186 8.03297 74.4662 5.34498 68.1354C3.53505 63.8726 2.31657 59.4037 1.71364 54.847C1.2283 51.1791 4.2645 48.1667 7.95407 48.1667C11.6436 48.1667 14.5753 51.1889 15.2205 54.832C15.7245 57.6775 16.5509 60.4667 17.6891 63.1472C19.7056 67.8966 22.6613 72.212 26.3873 75.8471C30.1134 79.4821 34.5368 82.3656 39.4052 84.3328C44.2735 86.3001 49.4914 87.3126 54.7608 87.3126C60.0303 87.3126 65.2481 86.3001 70.1164 84.3328C74.9848 82.3656 79.4082 79.4821 83.1343 75.8471C86.8604 72.212 89.816 67.8966 91.8326 63.1472C92.9707 60.4667 93.7971 57.6775 94.3011 54.832C94.9463 51.1889 97.878 48.1667 101.568 48.1667Z" fill="url(#paint2_linear_177_22)" fill-opacity="0.59"/>
<path fill-rule="evenodd" clip-rule="evenodd" d="M108.612 120.782C95.1218 94.3686 66.3198 109.601 55 120.907C43.6802 109.601 14.8782 94.3686 1.38802 120.782C-6.24904 135.735 18.4636 168.914 55 135.794C91.5364 168.914 116.249 135.735 108.612 120.782ZM12.5531 128.445C12.5531 136.108 25.4701 146.981 45.1185 128.445C25.4701 109.908 12.5531 120.782 12.5531 128.445ZM96.7866 128.445C96.7866 136.108 83.8696 146.981 64.2212 128.445C83.8696 109.908 96.7866 120.782 96.7866 128.445Z" fill="url(#paint3_linear_177_22)" fill-opacity="0.59"/>
<defs>
<linearGradient id="paint0_linear_177_22" x1="55" y1="-61" x2="55" y2="176" gradientUnits="userSpaceOnUse">
<stop stop-color="#969696"/>
<stop offset="0.541552" stop-color="#969696" stop-opacity="0.458448"/>
<stop offset="1" stop-color="#969696" stop-opacity="0"/>
</linearGradient>
<linearGradient id="paint1_linear_177_22" x1="55" y1="-61" x2="55" y2="176" gradientUnits="userSpaceOnUse">
<stop stop-color="#969696"/>
<stop offset="0.541552" stop-color="#969696" stop-opacity="0.458448"/>
<stop offset="1" stop-color="#969696" stop-opacity="0"/>
</linearGradient>
<linearGradient id="paint2_linear_177_22" x1="55" y1="-61" x2="55" y2="176" gradientUnits="userSpaceOnUse">
<stop stop-color="#969696"/>
<stop offset="0.541552" stop-color="#969696" stop-opacity="0.458448"/>
<stop offset="1" stop-color="#969696" stop-opacity="0"/>
</linearGradient>
<linearGradient id="paint3_linear_177_22" x1="55" y1="-61" x2="55" y2="176" gradientUnits="userSpaceOnUse">
<stop stop-color="#969696"/>
<stop offset="0.541552" stop-color="#969696" stop-opacity="0.458448"/>
<stop offset="1" stop-color="#969696" stop-opacity="0"/>
</linearGradient>
</defs>
</svg>
