<svg width="192" height="353" viewBox="0 0 192 353" fill="none" xmlns="http://www.w3.org/2000/svg">
<g filter="url(#filter0_d_459_3131)">
<path d="M15.5668 293.385C8.77113 285.67 4.18022 275.836 1.82197 265.425C0.63587 260.205 0.021888 254.841 0.021888 249.448C-0.075791 246.752 0.175384 244.056 0.342833 241.359C0.691687 238.677 0.984724 235.995 1.5708 233.356C2.07315 230.703 2.85458 228.108 3.56624 225.512C4.48721 222.974 5.31051 220.408 6.45475 217.971C8.63159 213.068 11.241 208.367 14.4365 204.143C17.6041 199.903 21.1205 195.981 25.1114 192.65C26.0743 191.8 27.1348 191.035 28.1534 190.257C29.1721 189.478 30.2186 188.728 31.321 188.065C32.4234 187.402 33.456 186.666 34.6002 186.089C35.7445 185.513 36.8608 184.907 38.0051 184.388C36.4282 186.45 34.7677 188.324 33.2886 190.358L32.1443 191.828L31.0559 193.342C30.3582 194.366 29.5768 195.303 28.9209 196.356C26.1301 200.379 23.6881 204.59 21.4694 208.843C19.2507 213.097 17.3808 217.481 15.804 221.965C14.1993 226.421 12.9016 230.992 11.9945 235.635C11.0177 240.263 10.3759 244.978 10.0968 249.737C9.72001 254.495 9.76188 259.297 10.0689 264.113C10.6828 273.774 12.6364 283.435 15.5668 293.385Z" fill="url(#paint0_linear_459_3131)"/>
<path d="M76.0441 291.885C94.2858 291.885 109.074 276.604 109.074 257.754C109.074 238.904 94.2858 223.623 76.0441 223.623C57.8024 223.623 43.0146 238.904 43.0146 257.754C43.0146 276.604 57.8024 291.885 76.0441 291.885Z" fill="url(#paint1_linear_459_3131)"/>
<path d="M169.396 262.772C168.81 269.751 167.499 276.744 165.294 283.478C164.247 286.853 162.88 290.126 161.428 293.37C159.894 296.571 158.233 299.715 156.307 302.714C154.465 305.756 152.275 308.554 150.07 311.337C147.753 314.004 145.367 316.643 142.716 318.993C140.148 321.416 137.316 323.55 134.469 325.626C131.553 327.602 128.553 329.462 125.413 331.034C119.189 334.292 112.547 336.701 105.738 338.142C98.9418 339.584 91.9648 340.248 85.0854 339.916C78.2618 339.541 71.4522 338.633 64.8519 336.787C61.5447 335.922 58.3213 334.739 55.1398 333.514C51.9862 332.187 48.8883 330.716 45.944 328.986C44.4509 328.179 43.0276 327.213 41.6043 326.29C40.2228 325.266 38.7995 324.329 37.4878 323.233L35.5203 321.618C34.8784 321.055 34.2644 320.464 33.6365 319.887C32.3527 318.763 31.2364 317.465 30.0642 316.254C29.8549 316.037 29.8549 315.691 30.0642 315.475C30.2456 315.288 30.5387 315.273 30.7619 315.417C41.3531 323.492 53.6188 328.337 66.1915 330.471C72.4708 331.553 78.8479 332.014 85.1831 331.841C91.4764 331.726 97.6999 330.875 103.742 329.231C106.77 328.453 109.714 327.429 112.631 326.319C115.505 325.107 118.38 323.853 121.115 322.339C123.892 320.911 126.501 319.152 129.097 317.422C131.636 315.576 134.134 313.673 136.478 311.582C145.939 303.305 153.81 292.894 159.028 280.955C164.289 269.073 166.592 255.577 165.419 242.296C164.219 229.016 159.475 216.082 151.912 205.296C150.014 202.614 147.991 200.019 145.772 197.639C144.711 196.385 143.511 195.289 142.367 194.107C141.181 192.996 139.995 191.886 138.753 190.848C133.785 186.695 128.413 183.105 122.664 180.351C116.943 177.596 110.942 175.52 104.83 174.208C98.8162 172.968 92.7043 172.319 86.5924 172.42C83.8295 172.463 81.3596 170.257 81.4713 167.402C81.5131 166.176 81.7782 164.778 82.769 164.23C143.316 131.05 190.718 64.3317 94.951 7C199.314 42.7891 170.959 138.967 97.5185 163.076C97.2673 163.163 97.1557 163.437 96.9883 163.595C100.309 164.114 103.589 164.835 106.812 165.787C113.524 167.661 119.873 170.617 125.818 174.15C137.706 181.302 147.656 191.41 155.024 203.061C156.865 205.988 158.554 209.002 160.033 212.131L161.163 214.452L162.196 216.832C162.922 218.403 163.466 220.047 164.08 221.648C166.368 228.194 168.001 234.971 168.894 241.864C169.885 248.756 169.927 255.779 169.396 262.758V262.772Z" fill="url(#paint2_linear_459_3131)"/>
<path d="M155.764 279.426C160.857 267.934 162.965 255.216 161.848 242.628C160.704 229.982 156.267 217.812 149.01 207.459C147.029 204.647 145.117 202.268 143.192 200.192L143.136 200.134L143.08 200.076C142.452 199.341 141.74 198.634 141.001 197.885C140.638 197.524 140.261 197.149 139.898 196.774C138.824 195.765 137.68 194.698 136.494 193.689C131.526 189.55 126.363 186.176 121.158 183.681C115.632 181.014 109.897 179.038 104.092 177.798C98.5802 176.659 93.1241 176.082 87.8913 176.082C87.4727 176.082 87.0541 176.082 86.6354 176.082H86.6075H86.4819C84.0958 176.082 81.7934 175.073 80.1607 173.314C78.6118 171.656 77.8025 169.493 77.8862 167.229C78.0257 163.393 79.7002 161.692 81.0677 160.942C99.3197 150.949 114.948 138.693 126.251 125.499C132.698 117.972 137.582 110.373 140.875 102.774C128.526 116.977 110.162 127.604 93.3613 137.323C74.3698 148.311 56.4247 158.693 56.034 170.228C55.6712 180.898 61.1691 183.48 87.1657 193.934L91.1147 195.52C128.33 210.53 147.685 234.524 145.606 263.089C142.661 303.781 110.581 324.444 78.7374 328.063C79.9793 328.121 81.2352 328.135 82.4771 328.135C83.3423 328.135 84.2074 328.135 85.0726 328.092C91.1845 327.991 97.1429 327.155 102.822 325.612C105.362 324.949 107.971 324.098 111.334 322.829C113.846 321.776 116.735 320.522 119.414 319.037L119.456 319.008L119.497 318.979C122.065 317.652 124.479 316.037 127.047 314.322H127.075C129.251 312.707 131.791 310.803 134.121 308.727C143.443 300.565 150.922 290.429 155.75 279.369L155.764 279.426Z" fill="url(#paint3_linear_459_3131)"/>
</g>
<defs>
<filter id="filter0_d_459_3131" x="0" y="0" width="191.734" height="353" filterUnits="userSpaceOnUse" color-interpolation-filters="sRGB">
<feFlood flood-opacity="0" result="BackgroundImageFix"/>
<feColorMatrix in="SourceAlpha" type="matrix" values="0 0 0 0 0 0 0 0 0 0 0 0 0 0 0 0 0 0 127 0" result="hardAlpha"/>
<feOffset dx="12" dy="3"/>
<feGaussianBlur stdDeviation="5"/>
<feComposite in2="hardAlpha" operator="out"/>
<feColorMatrix type="matrix" values="0 0 0 0 0 0 0 0 0 0 0 0 0 0 0 0 0 0 0.25 0"/>
<feBlend mode="normal" in2="BackgroundImageFix" result="effect1_dropShadow_459_3131"/>
<feBlend mode="normal" in="SourceGraphic" in2="effect1_dropShadow_459_3131" result="shape"/>
</filter>
<linearGradient id="paint0_linear_459_3131" x1="20.4877" y1="192.735" x2="17.3156" y2="293.331" gradientUnits="userSpaceOnUse">
<stop stop-color="#919394"/>
<stop offset="1" stop-color="#3F4244" stop-opacity="0"/>
</linearGradient>
<linearGradient id="paint1_linear_459_3131" x1="78.6256" y1="228.851" x2="77.9092" y2="291.906" gradientUnits="userSpaceOnUse">
<stop stop-color="#919394"/>
<stop offset="1" stop-color="#3F4244" stop-opacity="0"/>
</linearGradient>
<linearGradient id="paint2_linear_459_3131" x1="105.285" y1="32.5" x2="97.2349" y2="339.932" gradientUnits="userSpaceOnUse">
<stop stop-color="#919394"/>
<stop offset="1" stop-color="#3F4244" stop-opacity="0"/>
</linearGradient>
<linearGradient id="paint3_linear_459_3131" x1="113.226" y1="120.031" x2="108.367" y2="328.119" gradientUnits="userSpaceOnUse">
<stop stop-color="#919394"/>
<stop offset="1" stop-color="#3F4244" stop-opacity="0"/>
</linearGradient>
</defs>
</svg>
